<svg xmlns="http://www.w3.org/2000/svg" version="1" width="666.667" height="666.667" viewBox="0 0 500 500" preserveAspectRatio="xMidYMid meet"><g fill="#ffffff000" stroke="none"><path d="M172 91.5c.7.8 2.2 1.5 3.4 1.5 2-.1 2-.2-.4-1.5-3.3-1.9-4.6-1.9-3 0zm15.1 23.7c0 9.5.4 19.8.8 22.8.5 3 .5 6.6.1 8-1 3.6.3 7.5 2.4 7.3 1.1 0 1.5.4 1.2 1.3-.3.7-.1 1.6.4 1.9.5.3.6 1.3.3 2.2-.4 1.1-.3 1.4.6.9.6-.4 1.1-.4 1 .1-.1.4.3 2.1 1 3.8.6 1.6 1.4 3.6 1.6 4.2.2.7 1.1 1.3 2 1.3 2.3 0 2.9.2 4.3 1.7 1.1 1.1 2.1.8 5.9-1.9 10.2-7.4 14.5-14.4 14.6-24.3.2-11.2-6.9-22.1-24.3-37.3-13.1-11.4-12-12.2-11.9 8zM319 102c0 .5.5 1 1 1 .6 0 1-.5 1-1 0-.6-.4-1-1-1-.5 0-1 .4-1 1zm-2.4 3.7c-.6 1.4-.5 1.5.5.6.7-.7 1-1.5.7-1.8-.3-.3-.9.2-1.2 1.2zm-4.3 3.7c-.4.8-3.2 4.1-6.2 7.3-8 8.7-10.3 11.3-14.1 16.3-1.9 2.5-3.9 4.8-4.5 5.2-.5.4-.7.8-.3.8.4 0-.3 1.1-1.5 2.4-3.3 3.6-6.9 9.8-7.1 12.3 0 1.1-.4 1.9-.8 1.6-.5-.2-.8.3-.8 1.1 0 .9-.6 1.5-1.2 1.4-.7-.2-1.3.3-1.2.9.3 3.9.5 4.2 1.9 3.6.9-.3 1.4-.7 1.2-1-.3-.2.8-1.8 2.4-3.5l2.8-3.1 7.3 4.2c15.6 9 25.9 6.9 32.7-6.8 3.2-6.4 4.7-10.6 3.5-9.8-.8.5-21.3 4.7-29.7 6.2-2 .3-4.2.3-4.7 0-1.1-.7 0-3.4 2.5-5.9.8-.8 5.2-7.2 9.6-14.3 4.4-7 8.7-13.5 9.5-14.4 1.6-1.8 1.9-5.9.4-5.9-.5 0-1.3.6-1.7 1.4zm-179 26.8c.8 15.3 3 28.3 5.7 34.5 6 13.6 14.4 21.1 24.6 22 5.5.5 6.5.2 13.9-3.7 10.5-5.5 20.5-12 20.5-13.2 0-3.3-16.4-23.3-22.7-27.7-.5-.3-1.9-2.1-3.2-3.9-2.6-3.8-7.8-7.9-10.6-8.4-1-.1-2.7-1-3.6-1.9-1.7-1.7-21.7-9.9-24-9.9-.9 0-1.1 2.9-.6 12.2zM175 150c1.1.7.8 1-1.5.9-1.6 0-3.9-.4-5-.9-1.6-.7-1.4-.9 1.5-.9 1.9 0 4.2.4 5 .9zm82-2.7c0 .9-.4 1.7-1 1.7-.5 0-1 .4-1 .9s-.5 2.2-1.2 3.8c-.6 1.5-1 3.8-.9 5 .1 1.2-.3 3.2-.9 4.4-.7 1.3-.8 2.5-.3 3 .6.6 2-3 3.7-9.2 1.5-5.6 2.5-10.4 2.1-10.7-.3-.3-.5.2-.5 1.1zm-71 7.7c1.8 1.7 3.6 2.8 3.9 2.4.7-.7-4.5-5.4-6.1-5.4-.5 0 .4 1.4 2.2 3zm160.4 1.8c-1.7 1.5-4.3 5.3-5.8 8.5-2.8 5.7-4.7 14.8-3 14.6.5 0 4.1-1.7 7.9-3.7 6.7-3.6 7-3.9 7.3-7.7.4-4.3-1.5-14.5-2.6-14.5-.4 0-2.1 1.2-3.8 2.8zm47.9 1.3c-4 1-9.8 2.9-13 4.1-4.7 1.7-5.4 2.3-3.8 2.9 2.9 1.1 4.2 1 5.7-.4.7-.7 4.5-2.3 8.3-3.5 14.4-4.7 16.2-6.7 2.8-3.1zM272 162.2c-1.2 2.2-1.2 2.2.6.6 1-1 1.5-2 1.2-2.4-.4-.3-1.2.5-1.8 1.8z"/><path d="M248 163.6c-1.1 2.9-1 5.2.5 8.8.6 1.4.5 1.7-.3 1.2-.8-.4-1.2 0-1.2 1.1 0 1.4-.2 1.5-.9.4-.6-1-1.2-.4-1.9 2-1.8 5.6-4.4 20.8-3.7 21.9.3.5.1 1-.4 1-.6 0-1.1 1.1-1.1 2.5 0 3.8-2.7 4.2-6.2.9l-3-2.9 2.3 4c3.5 6.1 7 8.8 8.4 6.5 1.3-2.1 2-.8 2 3.9 0 2.7-.3 5.3-.7 5.7-.5.4-.8 2.4-.8 4.5s-.4 4.1-1 4.4c-.5.3-1.1 1.6-1.1 2.8-.1 1.8-.2 1.9-.6.4-.9-3.6-2.8-1-2.8 3.9-.1 6.3-1.1 9.1-3.6 9.9-1.9.6-2 1.5-1.8 13.3.1 7-.1 17-.6 22.2-.4 5.5-.4 11 .2 13 1.2 4.8.6 7.5-1.3 5.9-1.3-1-1.4-.6-.8 3.2.9 5.5 2.1 8.9 3.2 8.9.5 0 1.5 1.9 2.2 4.2.7 2.4 1.7 5.6 2.2 7.3 1.8 5.5 2 9.5.6 11.2-1 1.2-1 1.7-.1 2 .7.2 1 1 .7 1.8-.3.7 0 2.4.8 3.7.7 1.3 1.3 3 1.4 3.8.3 2.5 3.3 13.7 7.5 27.7 2.1 7.2 3.9 13.8 3.9 14.7 0 1.1-1.7 1.6-6.7 2.1-26.6 2.5-38.1 5.5-76.1 19.6-6.9 2.6-8.9 4.6-6.9 7.3 1.1 1.5 2.5 1.1 14.9-3.9 32.8-13.2 60.6-18.4 91.3-17.2 23.9 1 44.3 5.8 67.8 15.8 16.1 6.9 18.1 7.3 18.5 4.2.3-2-.8-2.8-7.5-5.9-27.4-12.5-49.7-18.5-75.4-20-8.1-.5-11.2-1.1-11.6-2.1-1-2.6 1.8-16.6 5.4-27.3 3.7-10.9 10.9-26.4 14.3-30.8 1.1-1.3 2-3 2-3.5 0-.6 2.7-3.6 6.1-6.7 4.5-4.1 5.5-5.6 4.1-5.6-1.3 0-1.8.5-1.4 1.5.3.8.1 1.2-.4.8-.6-.3-1.6.3-2.4 1.3-.8 1-1.7 1.7-2.2 1.4-.4-.3-.8.1-.8.8 0 1.5-3.6 4.9-4.3 4.1-.3-.3-.3.4 0 1.5.2 1.1 0 2.3-.6 2.6-.6.4-.9.1-.5-.7.3-.8-.2-1.9-1-2.6-1.2-1-2-.4-4.5 3.3-1.7 2.5-3.1 4.9-3 5.3.3 2-.2 3.4-1.1 2.8-.5-.3-1-.1-1 .4 0 .6.4 1.1.9 1.1s1.1 1 1.4 2.2c.6 2.2.5 2.2-.8.4-2.2-2.9-4-1.4-7 6.1-3.3 7.8-4.2 9.3-6 9.3-.7 0-4.4-9.4-8.9-22.6-8.6-25-9.5-30.2-9.6-54v-13.1l7.5-7.2c4.1-3.9 7.5-7.3 7.5-7.6 0-.2-.9-.2-2 0s-1.8 0-1.5-.5c.3-.5 0-1.2-.6-1.6-.7-.4-2.1.3-3.3 1.9-1.2 1.4-3 2.7-4.1 2.9-3.1.5-3-4 .4-20.8 1.7-8.1 3.1-17.5 3.1-20.8.1-9.8 1.2-13 6.7-18.3 7.7-7.5 16.6-19.1 16-20.7-.4-1-.1-1.3.8-1 .9.4 2.2-.7 3.4-2.8 1.1-1.8 2.5-3.8 3-4.5.6-.7.7-1.4.3-1.7-1.1-.7-3.6 1.6-5 4.7-.9 2.1-1.7 2.7-2.9 2.2-1-.3-1.4-.3-1.1.1.4.3-.5 1.7-2 3.1-1.5 1.4-1.9 2-.9 1.3 1.4-1 1.7-1 1.7.4 0 .9-.8 1.6-1.9 1.6-1 0-3.7 2-5.9 4.5-2.3 2.4-5.1 4.9-6.2 5.5-2.5 1.3-2.6.1-.5-8.1 2-7.5 2.5-11.9 1.4-11.9-.5 0-.9.8-1 1.7 0 1.5-.2 1.5-.8-.2-.5-1.1-.4-3.3.2-4.8 1.3-3.8.1-4.8-1.3-1.1zm-2.2 17.9c-.3.3-.9-.2-1.2-1.2-.6-1.4-.5-1.5.5-.6.7.7 1 1.5.7 1.8zm15.4-1.8c-.6.2-.9 1-.6 1.5.4.7.2.8-.5.4-1.3-.9-.5-2.6 1.2-2.5.9 0 .8.2-.1.6zM244 191c0 1.1-.4 2-.9 2s-.7-.9-.4-2c.3-1.1.7-2 .9-2 .2 0 .4.9.4 2zm.5 66c-.3.5-1.3.6-2.1.3-1.2-.4-1.3-.8-.3-1.4 1.5-.9 3.2-.2 2.4 1.1zm30.5 74.6c-1 2.1-1.9 3.2-2 2.4 0-1.3-.1-1.3-1 0-1.1 1.7-1.3 1-.4-1.4.3-.9 1-1.3 1.5-1 .5.3 1 0 1-.5.1-.6.3-1.6.4-2.1.1-.6.3-1.5.4-2.2.1-.8.4-.9 1.1-.2.7.7.4 2.3-1 5zm-7 11.8c0 .2-.7.7-1.6 1-.8.3-1.2.2-.9-.4.6-1 2.5-1.4 2.5-.6zm-62-167.6c0 .4.8 1.5 1.8 2.4.9.9 3.1 3.5 4.7 5.8 2.9 4 13.5 15.2 13.5 14.2 0-.2.8.2 1.7.9 2.8 2.2-7.5-10.8-14-17.7-5.5-5.9-7.7-7.5-7.7-5.6zm150.4 3.3c.3 1.9.3 2.8 0 2.1-.3-.6-1.2-1.2-2-1.2-1.7 0-17 7.6-17.7 8.7-.9 1.6 6.3 11.3 10.4 14 3.7 2.4 5.3 2.8 11.3 2.8 6.7 0 7.5-.2 14.1-4.6 3.9-2.5 9.3-7.2 12.1-10.5 5.5-6.4 7.4-9.1 5.6-8-.6.4-3.7-.7-6.9-2.4-5-2.7-7-3.1-16.6-3.7l-10.9-.6.6 3.4zm10.3 20.1c-.3.8-.6.5-.6-.6-.1-1.1.2-1.7.5-1.3.3.3.4 1.2.1 1.9zm-38.4-9.8c1.8 1.4 1.7 1.5-.5 2.2-1.3.4-2.6.7-3 .6-.4-.1-3.2.9-6.2 2.3-5.7 2.6-9.4 3.4-6.6 1.4 1.3-.9 1.3-1 0-.6-.8.2-1.4 1-1.2 1.7.2.8-.4 1-1.5.6-1.7-.6-1.7-.5 0 .8s1.6 1.4-.7 1.2c-1.3 0-2.2-.5-1.9-1 .8-1.3-4.6 2.1-8.6 5.3-2.2 1.8-2.8 2.8-1.8 2.8.9 0 1.8-.6 2.1-1.3.3-.8 1.2-1.1 2.1-.8 1.4.6 1.3.8-.2 2-1 .7-1.4 1.4-.9 1.4.4 0-.2.9-1.5 2.1-2.4 2-2.4 2-.1.9 3.1-1.5 5.9-5.9 4.3-6.9-.8-.5-.4-1.1 1.2-1.8 1.8-.9 2.4-.8 2.4.2 0 .7-.6 1.1-1.4.8-.9-.4-1.1 0-.7 1.1.5 1.4.8 1.4 3-.1 1.3-.8 2.4-2 2.4-2.6 0-.6.3-.8.6-.5.3.3 5.5-1.9 11.6-4.9 6-3 10.8-5.6 10.7-5.7-.2-.2-1.5-.9-2.9-1.5-2.3-1.1-2.3-1.1-.7.3zm-114.9.7c-.8 1.3.9 3.2 3.2 3.5.9.1 1.3-.1.9-.4-.4-.4-1.2-.7-1.8-.7-.7 0-1.1-.8-1.1-1.8.2-2-.2-2.2-1.2-.6z"/><path d="M319.5 192c.3.5.8 1 1.1 1 .2 0 .4-.5.4-1 0-.6-.5-1-1.1-1-.5 0-.7.4-.4 1zm-3 1c-.3.5-.1 1 .4 1 .6 0 1.1-.5 1.1-1 0-.6-.2-1-.4-1-.3 0-.8.4-1.1 1zm-26.6 17.5c-.1.5-.1 1.4 0 1.8.1.4-.7.7-1.6.5-1.1-.2-1.7.2-1.5 1 .1.8-.2 1.1-.6.8-.5-.3-1.6.2-2.4 1.2-2.4 2.8-2.8 3.9-1.3 3.9.8 0 1.2-.4.9-.9-.3-.4.3-.5 1.2-.1 1.6.6 1.5.7-.2 2-1 .7-1.3 1.3-.8 1.3s3-1.9 5.5-4.3c2.5-2.3 3.7-3.6 2.7-2.8-1.9 1.4-2.6.3-.8-1.5.6-.6.6-1.5 0-2.4-.5-.8-1-1.1-1.1-.5zm-146.1 9.1c-.4.3-10.7.6-23 .6-12.2.1-21.1.3-19.5.5 1.5.2 2.7 1 2.7 1.7 0 2.4 2.6 3.6 9 4.3 5.3.5 6.2.4 5.5-.8-.7-1.1-.6-1.2.7-.2 2 1.7 12.5 3.5 21.4 3.8 3.9.1 7.5.5 8.1.8.6.4 1.5-.5 2.1-1.8 1-2.2 1.8-2.5 6.4-2.5 2.9 0 7.5.7 10.2 1.5 6.4 1.9 6.9 1.9 5.6-.5-.8-1.5-.8-2 .2-2 1.3-.1-3-2.2-7.1-3.5-1.6-.5-2.1-.4-1.7.4.4.6.3 1.1-.3 1.1-.5 0-1.4-.6-1.8-1.4-.8-1.3-17.4-3.2-18.5-2zm24.7 4.4c.3.6-.1.7-.9.4-1.8-.7-2.1-1.4-.7-1.4.6 0 1.3.4 1.6 1zm-38.1 1.5c-.4.9-1.7 1.5-3.3 1.4-2-.1-2.2-.2-.6-.6 1.1-.3 2.4-.9 3-1.4 1.3-1.3 1.5-1.1.9.6zm35.6-.5c.8.5 1.1 1 .5 1-.5 0-1.7-.5-2.5-1s-1-1-.5-1c.6 0 1.7.5 2.5 1zm71.4-3.9c-.3.6-.2 1.5.4 2.1.6.6 1.2.6 1.7-.3.6-.8.4-1-.5-.4-1 .6-1.2.4-.7-.8.7-1.9.2-2.3-.9-.6zm-171.4.3c.7.6 15.5 2.4 25.2 3 5.9.3 7.5.2 6.6-.7-.6-.7-3.8-1.3-7.2-1.5-3.3-.1-10.4-.5-15.6-.8-5.2-.3-9.3-.3-9 0zm214.9 3.3c-1.3 1.6-1.2 1.7.4.4.9-.7 1.7-1.5 1.7-1.7 0-.8-.8-.3-2.1 1.3zm-10.4 2.9c-1.6 1.4-2.5 2.4-2 2.3 1.6-.3 4.5 1.2 4 2.1-.3.5-1.5.6-2.7.2-1.6-.4-2-.2-1.5 1 .4 1.1-.1 1.8-1.5 2.1-1.1.3-1.7 1-1.3 1.6.6 1-.8 1.6-2.8 1.2-.5-.1-.6.3-.2.9.8 1.3-.8 1.3-2.1 0-.6-.6-2.5.5-5.4 3.1-3.1 2.8-3.5 3.4-1.4 2l3.2-2.1v2.5c0 2.2-.3 2.4-1.7 1.3-1.4-1.1-1.4-1.1-.4.3.7.9 1 1.9.6 2.2-.3.4-.4.7-.2.7.3 0 5.9-5.2 12.4-11.6 6.6-6.3 11.4-11.3 10.8-10.9-.7.3-1.3 0-1.3-.7 0-.8-.5-.6-1.1.5-.6.9-1.5 1.5-2 1.2-.5-.4-.7-1.1-.4-1.6.9-1.4.3-1-3 1.7zm2.1.3c-.4.5 0 1.2.6 1.4.8.3.6.6-.4.6-1.8.1-2.4-1-1.1-2.2.9-1 1.5-.8.9.2zM261 241.3c0 .2-.8 1.1-1.8 2-1.6 1.5-1.8 1.5-1.8-.3 0-1.3.7-2 1.8-2 1 0 1.8.2 1.8.3zM181 230c0 .5-.7 1-1.5 1-2.8 0-1.5 1.6 3 3.7 2.5 1.1 4.5 1.6 4.5 1.1 0-.6.7-.7 1.6-.4 1.4.5 1.5.4.4-.9-1.5-1.8-3.5-2-2.4-.3.5.8.2.9-1.2.4-1-.5-2.7-1.1-3.7-1.3-1.7-.5-1.7-.7-.1-2.4 1-1.1 1.2-1.9.6-1.9-.7 0-1.2.4-1.2 1zm187.2 8.2c-5.5 2.6-13.5 11.4-15 16.5-1.6 5.5-1.5 11.8.4 15.4 1.8 3.5 2.2 3.4 13.1-1.8 8.1-3.9 13.5-5.4 15.4-4.2.8.4 2.3 0 3.8-1s3.7-2.2 5-2.6c2-.6 2.3-.4 1.8.9-.4.9-.5 1.6-.4 1.6.1 0 7.2-.9 15.7-2.1 8.5-1.1 18.2-2.3 21.5-2.6 5.7-.5 8.5-1.6 8.5-3.3 0-1.7-30.6.2-43.3 2.7-2.8.5-2.9.5-1.3-1.9 1.9-2.9 6.8-16.9 6.1-17.6-1.1-1.1-9.7-2.1-18-2.1-7 0-9.9.4-13.3 2.1zM210 249c.6 1.1 1.3 2 1.6 2 .2 0 0-.9-.6-2s-1.3-2-1.6-2c-.2 0 0 .9.6 2zm7.4 13.1c-.3.6-.2 1.5.4 2.1.6.6 1.2.6 1.7-.3.6-.8.4-1-.5-.4-1 .6-1.2.4-.7-.8.7-1.9.2-2.3-.9-.6z"/><path d="M385.5 265.6c-1.7.8-6.8 3.8-11.5 6.5l-8.6 5.1 8.1 8.3c9.5 9.8 12.5 11.2 19.2 9.6 2.7-.7 5.8-1.9 7-2.6 1.9-1.3 2-1.8 1.1-5.2-1.5-5.7-8.3-19.6-10.5-21.5-1.7-1.6-2.1-1.6-4.8-.2zm-165.5-.2c0 .3.7 2.2 1.5 4.2.8 1.9 1.2 4 .9 4.8-.3.7.2 1.3 1 1.3 1.2 0 1.1-.9-.6-5.1-1.9-5-2.8-6.6-2.8-5.2zm-3.7 2.3c-1.3.5.3 6.3 1.8 6.3.4 0 .6.8.2 1.7-.4 1.3-.3 1.5.5.8 1.5-1.4-.8-9.3-2.5-8.8zM178 269c-.9.6-1 1-.3 1 .6 0 1.5-.5 1.8-1 .8-1.2.4-1.2-1.5 0zm5 0c-.9.6-1 1-.3 1 .6 0 1.5-.5 1.8-1 .8-1.2.4-1.2-1.5 0zm-8.5 1.9c-.3.5-.2 1.2.3 1.5.5.3.9-.1.9-.9 0-1.7-.3-1.9-1.2-.6zm16.5-.5c0 .2.7.7 1.6 1 .8.3 1.2.2.9-.4-.6-1-2.5-1.4-2.5-.6zm6.5 4.4c.4.9-.7 2.6-3.4 4.9-4.2 3.5-8.1 10.1-8.1 13.5 0 1-.1 1.8-.2 1.8-.2 0-2.3-.6-4.8-1.4-4.3-1.3-4.6-1.3-4.6.5 0 1.1.4 1.5 1.1 1 1.2-.9 5.8 1.2 4.8 2.2-.3.4.3.7 1.5.7s2.2.5 2.2 1c0 .6-1.1.8-2.6.4-1.9-.5-2.5-.4-2 .5.4.6 1.8 1.1 3.2 1.1 1.3 0 2.4.4 2.4.8 0 1.4 8.8 5.5 12.3 5.8 1.7.1 5.3.5 8 .9l4.7.8v-3.6c0-7.8-7.3-24.6-13.2-30.2-1.1-1.1-1.7-1.4-1.3-.7zm21.5 4.1c0 .6.4 1.3 1 1.6.6.3.7-.1.4-.9-.7-1.8-1.4-2.1-1.4-.7zm139.5 2.2c-1.6 1.1-4.3 2.6-6 3.4-4.5 2.1-7.9 5.1-7.1 6.4 1.1 1.7 3.6 1.3 3.6-.5 0-1.4.3-1.4 1.5-.4 1.2 1 1.3 1.6.3 2.8-.7.8-1.3 2-1.3 2.6 0 .6-.4 1.2-.9 1.3-.5.1-1.2.5-1.5 1-.8 1.1-7.9 4.3-9.6 4.3-.8 0-3.4 1.3-5.8 3-2.5 1.6-5 3-5.7 3-.7 0-2.4.8-3.8 1.8-4.3 3-5.6 3.6-4.8 2.4.3-.6.2-1.3-.4-1.7-.5-.3-1 .1-1 1s-.4 1.4-.9 1.1c-1.3-.9-.7 2.7.9 5.2.8 1.2 3.9 3.9 6.9 6 5 3.5 5.8 3.7 13 3.7 6.4 0 8.6-.5 13.5-2.9 7.7-3.8 13.1-8.8 16.2-14.8 3-6 3.1-9.4.3-10.3-1.2-.4-1.8-1-1.3-1.4.5-.3.9-1.3.9-2.1s.6-1.4 1.3-1.3c.6.2 1.2-.2 1.2-.8 0-2.2-3.2-10.5-4.8-12.6l-1.7-2.3-3 2.1zm5.3 3.2c.2.9-.1 1.7-.7 1.7s-.7-.7-.4-1.7c.4-1 .2-1.4-.5-.9-.6.3-1.4.1-1.7-.5-.5-.7 0-1 1.1-.7 1 .2 2 1.1 2.2 2.1zm-2.1 5.9c-.3.7-.5.2-.5-1.2s.2-1.9.5-1.3c.2.7.2 1.9 0 2.5zm5.3 2.2c0 1.6-2.8-1.5-3.4-3.7-.5-2.1-.4-2.1 1.4.3 1.1 1.4 2 2.9 2 3.4zm-195-.4c0 .5.5 1 1.1 1 .5 0 .7-.5.4-1-.3-.6-.8-1-1.1-1-.2 0-.4.4-.4 1zm158 2c0 .5.4 1 .9 1 .6 0 1.3-.5 1.6-1 .3-.6-.1-1-.9-1-.9 0-1.6.4-1.6 1zm3.5 1c-.3.6.1.7.9.4 1.8-.7 2.1-1.4.7-1.4-.6 0-1.3.4-1.6 1zm-165 1c-.3.6.1.7.9.4 1.8-.7 2.1-1.4.7-1.4-.6 0-1.3.4-1.6 1zm3.5-.1c0 .5.6 1.4 1.4 2 1.2 1 1.3.8.9-.8-.5-2.1-2.3-3-2.3-1.2z"/><path d="M178 297c0 .6.7 1 1.5 1s1.5-.2 1.5-.4-.7-.6-1.5-1c-.8-.3-1.5-.1-1.5.4zm164.8.7c.6.2 1.8.2 2.5 0 .6-.3.1-.5-1.3-.5-1.4 0-1.9.2-1.2.5zm-166 2c.6.2 1.8.2 2.5 0 .6-.3.1-.5-1.3-.5-1.4 0-1.9.2-1.2.5zm147.7 1.3c-.3.6.1.7.9.4 1.8-.7 2.1-1.4.7-1.4-.6 0-1.3.4-1.6 1zm-151.4.9c-1.2.8-1.2 1.2.2 2.6.9.9 2.1 1.4 2.5 1.1 1.3-.8 4.9 2.1 3.9 3.1-.5.4-1.3 0-1.8-1-1-1.6-1.2-1.6-3.8-.1-2 1.2-2.7 2.2-2.3 3.6.2 1.1 1 1.7 1.8 1.4 2-.8 3.2 1.4 3.9 7.6.7 5.2 1 5.8 3.8 6.7 4.8 1.7 14.7 1.3 19.4-.8 2.3-1.1 5.9-3.7 8.1-6l3.9-4 5.4 1.4c7.2 1.9 9 1.9 8.2-.1-.5-1.2-1.4-1.5-4.4-1-2.2.3-4 .2-4.4-.4-.4-.6-1.2-.8-1.8-.4-.7.3-.1-.3 1.2-1.4 2.3-1.8 2.3-2 .5-2.5-3.8-1.2-8.9-1.8-7.5-.8.7.4.9 1.1.5 1.4-2.1 1.2-7.6-.4-17-5.1-10.2-5.1-17.7-7-20.3-5.3zm8.6 5.3c-.3.7-.5.2-.5-1.2s.2-1.9.5-1.3c.2.7.2 1.9 0 2.5zm33.4 5.2c1.2-.6 1.2-.5 0 .9-1 1.3-1.7 1.5-2.7.6-.8-.6-1.1-1.6-.8-2.1.4-.6.9-.5 1.4.2.5.8 1.3.9 2.1.4zm112.1-9.5c-1.1.6-1 1 .4 1.5 2 .8 3.2 0 1.8-1.4-.5-.5-1.5-.5-2.2-.1zm-20.9 4.6c-1.7 1.3-1.7 1.4.5.8 1.2-.3 2.8-.1 3.5.5.9.8 1.3.6 1.3-.7 0-2.1-2.8-2.4-5.3-.6zm-14.8 2.5c-3.9 2.6-2.5 2.6 1.7 0 1.8-1.1 2.9-2 2.3-2-.5 0-2.3.9-4 2zm-5 3.8c-.5.4-1.1 1.6-1.3 2.7l-.2 2 1.1-2c.7-1.1 1.7-2.3 2.3-2.7.7-.5.7-.8.1-.8-.5 0-1.4.4-2 .8zm-52.4 19.8c0 1.1.3 1.4.6.6.3-.7.2-1.6-.1-1.9-.3-.4-.6.2-.5 1.3z"/></g></svg>