<?xml version="1.0" standalone="no"?>
<!DOCTYPE svg PUBLIC "-//W3C//DTD SVG 20010904//EN"
 "http://www.w3.org/TR/2001/REC-SVG-20010904/DTD/svg10.dtd">
<svg version="1.0" xmlns="http://www.w3.org/2000/svg"
 width="500.000000pt" height="500.000000pt" viewBox="0 0 500.000000 500.000000"
 preserveAspectRatio="xMidYMid meet">

<g transform="translate(0.000000,500.000000) scale(0.100000,-0.100000)"
fill="#000000" stroke="none">
<path d="M1720 4085 c7 -8 22 -15 34 -15 20 1 20 2 -4 15 -33 19 -46 19 -30 0z"/>
<path d="M1871 3848 c0 -95 4 -198 8 -228 5 -30 5 -66 1 -80 -10 -36 3 -75 24
-73 11 0 15 -4 12 -13 -3 -7 -1 -16 4 -19 5 -3 6 -13 3 -22 -4 -11 -3 -14 6
-9 6 4 11 4 10 -1 -1 -4 3 -21 10 -38 6 -16 14 -36 16 -42 2 -7 11 -13 20 -13
23 0 29 -2 43 -17 11 -11 21 -8 59 19 102 74 145 144 146 243 2 112 -69 221
-243 373 -131 114 -120 122 -119 -80z"/>
<path d="M3190 3980 c0 -5 5 -10 10 -10 6 0 10 5 10 10 0 6 -4 10 -10 10 -5 0
-10 -4 -10 -10z"/>
<path d="M3166 3943 c-6 -14 -5 -15 5 -6 7 7 10 15 7 18 -3 3 -9 -2 -12 -12z"/>
<path d="M3123 3906 c-4 -8 -32 -41 -62 -73 -80 -87 -103 -113 -141 -163 -19
-25 -39 -48 -45 -52 -5 -4 -7 -8 -3 -8 4 0 -3 -11 -15 -24 -33 -36 -69 -98
-71 -123 0 -11 -4 -19 -8 -16 -5 2 -8 -3 -8 -11 0 -9 -6 -15 -12 -14 -7 2 -13
-3 -12 -9 3 -39 5 -42 19 -36 9 3 14 7 12 10 -3 2 8 18 24 35 l28 31 73 -42
c156 -90 259 -69 327 68 32 64 47 106 35 98 -8 -5 -213 -47 -297 -62 -20 -3
-42 -3 -47 0 -11 7 0 34 25 59 8 8 52 72 96 143 44 70 87 135 95 144 16 18 19
59 4 59 -5 0 -13 -6 -17 -14z"/>
<path d="M1333 3638 c8 -153 30 -283 57 -345 60 -136 144 -211 246 -220 55 -5
65 -2 139 37 105 55 205 120 205 132 0 33 -164 233 -227 277 -5 3 -19 21 -32
39 -26 38 -78 79 -106 84 -10 1 -27 10 -36 19 -17 17 -217 99 -240 99 -9 0
-11 -29 -6 -122z m417 -138 c11 -7 8 -10 -15 -9 -16 0 -39 4 -50 9 -16 7 -14
9 15 9 19 0 42 -4 50 -9z"/>
<path d="M2570 3527 c0 -9 -4 -17 -10 -17 -5 0 -10 -4 -10 -9 0 -5 -5 -22 -12
-38 -6 -15 -10 -38 -9 -50 1 -12 -3 -32 -9 -44 -7 -13 -8 -25 -3 -30 6 -6 20
30 37 92 15 56 25 104 21 107 -3 3 -5 -2 -5 -11z"/>
<path d="M1860 3450 c18 -17 36 -28 39 -24 7 7 -45 54 -61 54 -5 0 4 -14 22
-30z"/>
<path d="M3464 3432 c-17 -15 -43 -53 -58 -85 -28 -57 -47 -148 -30 -146 5 0
41 17 79 37 67 36 70 39 73 77 4 43 -15 145 -26 145 -4 0 -21 -12 -38 -28z"/>
<path d="M3943 3419 c-40 -10 -98 -29 -130 -41 -47 -17 -54 -23 -38 -29 29
-11 42 -10 57 4 7 7 45 23 83 35 144 47 162 67 28 31z"/>
<path d="M2720 3378 c-12 -22 -12 -22 6 -6 10 10 15 20 12 24 -4 3 -12 -5 -18
-18z"/>
<path d="M2480 3364 c-11 -29 -10 -52 5 -88 6 -14 5 -17 -3 -12 -8 4 -12 0
-12 -11 0 -14 -2 -15 -9 -4 -6 10 -12 4 -19 -20 -18 -56 -44 -208 -37 -219 3
-5 1 -10 -4 -10 -6 0 -11 -11 -11 -25 0 -38 -27 -42 -62 -9 l-30 29 23 -40
c35 -61 70 -88 84 -65 13 21 20 8 20 -39 0 -27 -3 -53 -7 -57 -5 -4 -8 -24 -8
-45 0 -21 -4 -41 -10 -44 -5 -3 -11 -16 -11 -28 -1 -18 -2 -19 -6 -4 -9 36
-28 10 -28 -39 -1 -63 -11 -91 -36 -99 -19 -6 -20 -15 -18 -133 1 -70 -1 -170
-6 -222 -4 -55 -4 -110 2 -130 12 -48 6 -75 -13 -59 -13 10 -14 6 -8 -32 9
-55 21 -89 32 -89 5 0 15 -19 22 -42 7 -24 17 -56 22 -73 18 -55 20 -95 6
-112 -10 -12 -10 -17 -1 -20 7 -2 10 -10 7 -18 -3 -7 0 -24 8 -37 7 -13 13
-30 14 -38 3 -25 33 -137 75 -277 21 -72 39 -138 39 -147 0 -11 -17 -16 -67
-21 -266 -25 -381 -55 -761 -196 -69 -26 -89 -46 -69 -73 11 -15 25 -11 149
39 328 132 606 184 913 172 239 -10 443 -58 678 -158 161 -69 181 -73 185 -42
3 20 -8 28 -75 59 -274 125 -497 185 -754 200 -81 5 -112 11 -116 21 -10 26
18 166 54 273 37 109 109 264 143 308 11 13 20 30 20 35 0 6 27 36 61 67 45
41 55 56 41 56 -13 0 -18 -5 -14 -15 3 -8 1 -12 -4 -8 -6 3 -16 -3 -24 -13 -8
-10 -17 -17 -22 -14 -4 3 -8 -1 -8 -8 0 -15 -36 -49 -43 -41 -3 3 -3 -4 0 -15
2 -11 0 -23 -6 -26 -6 -4 -9 -1 -5 7 3 8 -2 19 -10 26 -12 10 -20 4 -45 -33
-17 -25 -31 -49 -30 -53 3 -20 -2 -34 -11 -28 -5 3 -10 1 -10 -4 0 -6 4 -11 9
-11 5 0 11 -10 14 -22 6 -22 5 -22 -8 -4 -22 29 -40 14 -70 -61 -33 -78 -42
-93 -60 -93 -7 0 -44 94 -89 226 -86 250 -95 302 -96 540 l0 131 75 72 c41 39
75 73 75 76 0 2 -9 2 -20 0 -11 -2 -18 0 -15 5 3 5 0 12 -6 16 -7 4 -21 -3
-33 -19 -12 -14 -30 -27 -41 -29 -31 -5 -30 40 4 208 17 81 31 175 31 208 1
98 12 130 67 183 77 75 166 191 160 207 -4 10 -1 13 8 10 9 -4 22 7 34 28 11
18 25 38 30 45 6 7 7 14 3 17 -11 7 -36 -16 -50 -47 -9 -21 -17 -27 -29 -22
-10 3 -14 3 -11 -1 4 -3 -5 -17 -20 -31 -15 -14 -19 -20 -9 -13 14 10 17 10
17 -4 0 -9 -8 -16 -19 -16 -10 0 -37 -20 -59 -45 -23 -24 -51 -49 -62 -55 -25
-13 -26 -1 -5 81 20 75 25 119 14 119 -5 0 -9 -8 -10 -17 0 -15 -2 -15 -8 2
-5 11 -4 33 2 48 13 38 1 48 -13 11z m-22 -179 c-3 -3 -9 2 -12 12 -6 14 -5
15 5 6 7 -7 10 -15 7 -18z m154 18 c-6 -2 -9 -10 -6 -15 4 -7 2 -8 -5 -4 -13
9 -5 26 12 25 9 0 8 -2 -1 -6z m-172 -113 c0 -11 -4 -20 -9 -20 -5 0 -7 9 -4
20 3 11 7 20 9 20 2 0 4 -9 4 -20z m5 -660 c-3 -5 -13 -6 -21 -3 -12 4 -13 8
-3 14 15 9 32 2 24 -11z m305 -746 c-10 -21 -19 -32 -20 -24 0 13 -1 13 -10 0
-11 -17 -13 -10 -4 14 3 9 10 13 15 10 5 -3 10 0 10 5 1 6 3 16 4 21 1 6 3 15
4 22 1 8 4 9 11 2 7 -7 4 -23 -10 -50z m-70 -118 c0 -2 -7 -7 -16 -10 -8 -3
-12 -2 -9 4 6 10 25 14 25 6z"/>
<path d="M2060 3242 c0 -4 8 -15 18 -24 9 -9 31 -35 47 -58 29 -40 135 -152
135 -142 0 2 8 -2 17 -9 28 -22 -75 108 -140 177 -55 59 -77 75 -77 56z"/>
<path d="M3564 3209 c3 -19 3 -28 0 -21 -3 6 -12 12 -20 12 -17 0 -170 -76
-177 -87 -9 -16 63 -113 104 -140 37 -24 53 -28 113 -28 67 0 75 2 141 46 39
25 93 72 121 105 55 64 74 91 56 80 -6 -4 -37 7 -69 24 -50 27 -70 31 -166 37
l-109 6 6 -34z m103 -201 c-3 -8 -6 -5 -6 6 -1 11 2 17 5 13 3 -3 4 -12 1 -19z"/>
<path d="M3283 3106 c18 -14 17 -15 -5 -22 -13 -4 -26 -7 -30 -6 -4 1 -32 -9
-62 -23 -57 -26 -94 -34 -66 -14 13 9 13 10 0 6 -8 -2 -14 -10 -12 -17 2 -8
-4 -10 -15 -6 -17 6 -17 5 0 -8 17 -13 16 -14 -7 -12 -13 0 -22 5 -19 10 8 13
-46 -21 -86 -53 -22 -18 -28 -28 -18 -28 9 0 18 6 21 13 3 8 12 11 21 8 14 -6
13 -8 -2 -20 -10 -7 -14 -14 -9 -14 4 0 -2 -9 -15 -21 -24 -20 -24 -20 -1 -9
31 15 59 59 43 69 -8 5 -4 11 12 18 18 9 24 8 24 -2 0 -7 -6 -11 -14 -8 -9 4
-11 0 -7 -11 5 -14 8 -14 30 1 13 8 24 20 24 26 0 6 3 8 6 5 3 -3 55 19 116
49 60 30 108 56 107 57 -2 2 -15 9 -29 15 -23 11 -23 11 -7 -3z"/>
<path d="M2134 3099 c-8 -13 9 -32 32 -35 9 -1 13 1 9 4 -4 4 -12 7 -18 7 -7
0 -11 8 -11 18 2 20 -2 22 -12 6z"/>
<path d="M3195 3080 c3 -5 8 -10 11 -10 2 0 4 5 4 10 0 6 -5 10 -11 10 -5 0
-7 -4 -4 -10z"/>
<path d="M3165 3070 c-3 -5 -1 -10 4 -10 6 0 11 5 11 10 0 6 -2 10 -4 10 -3 0
-8 -4 -11 -10z"/>
<path d="M2899 2895 c-1 -5 -1 -14 0 -18 1 -4 -7 -7 -16 -5 -11 2 -17 -2 -15
-10 1 -8 -2 -11 -6 -8 -5 3 -16 -2 -24 -12 -24 -28 -28 -39 -13 -39 8 0 12 4
9 9 -3 4 3 5 12 1 16 -6 15 -7 -2 -20 -10 -7 -13 -13 -8 -13 5 0 30 19 55 43
25 23 37 36 27 28 -19 -14 -26 -3 -8 15 6 6 6 15 0 24 -5 8 -10 11 -11 5z"/>
<path d="M1438 2804 c-4 -3 -107 -6 -230 -6 -122 -1 -211 -3 -195 -5 15 -2 27
-10 27 -17 0 -24 26 -36 90 -43 53 -5 62 -4 55 8 -7 11 -6 12 7 2 20 -17 125
-35 214 -38 39 -1 75 -5 81 -8 6 -4 15 5 21 18 10 22 18 25 64 25 29 0 75 -7
102 -15 64 -19 69 -19 56 5 -8 15 -8 20 2 20 13 1 -30 22 -71 35 -16 5 -21 4
-17 -4 4 -6 3 -11 -3 -11 -5 0 -14 6 -18 14 -8 13 -174 32 -185 20z m247 -44
c3 -6 -1 -7 -9 -4 -18 7 -21 14 -7 14 6 0 13 -4 16 -10z m-381 -15 c-4 -9 -17
-15 -33 -14 -20 1 -22 2 -6 6 11 3 24 9 30 14 13 13 15 11 9 -6z m356 5 c8 -5
11 -10 5 -10 -5 0 -17 5 -25 10 -8 5 -10 10 -5 10 6 0 17 -5 25 -10z"/>
<path d="M2374 2789 c-3 -6 -2 -15 4 -21 6 -6 12 -6 17 3 6 8 4 10 -5 4 -10
-6 -12 -4 -7 8 7 19 2 23 -9 6z"/>
<path d="M660 2786 c7 -6 155 -24 252 -30 59 -3 75 -2 66 7 -6 7 -38 13 -72
15 -33 1 -104 5 -156 8 -52 3 -93 3 -90 0z"/>
<path d="M2809 2753 c-13 -16 -12 -17 4 -4 9 7 17 15 17 17 0 8 -8 3 -21 -13z"/>
<path d="M2705 2724 c-16 -14 -25 -24 -20 -23 16 3 45 -12 40 -21 -3 -5 -15
-6 -27 -2 -16 4 -20 2 -15 -10 4 -11 -1 -18 -15 -21 -11 -3 -17 -10 -13 -16 6
-10 -8 -16 -28 -12 -5 1 -6 -3 -2 -9 8 -13 -8 -13 -21 0 -6 6 -25 -5 -54 -31
-31 -28 -35 -34 -14 -20 l32 21 0 -25 c0 -22 -3 -24 -17 -13 -14 11 -14 11 -4
-3 7 -9 10 -19 6 -22 -3 -4 -4 -7 -2 -7 3 0 59 52 124 116 66 63 114 113 108
109 -7 -3 -13 0 -13 7 0 8 -5 6 -11 -5 -6 -9 -15 -15 -20 -12 -5 4 -7 11 -4
16 9 14 3 10 -30 -17z m21 -3 c-4 -5 0 -12 6 -14 8 -3 6 -6 -4 -6 -18 -1 -24
10 -11 22 9 10 15 8 9 -2z m-116 -134 c0 -2 -8 -11 -18 -20 -16 -15 -18 -15
-18 3 0 13 7 20 18 20 10 0 18 -2 18 -3z"/>
<path d="M1810 2700 c0 -5 -7 -10 -15 -10 -28 0 -15 -16 30 -37 25 -11 45 -16
45 -11 0 6 7 7 16 4 14 -5 15 -4 4 9 -15 18 -35 20 -24 3 5 -8 2 -9 -12 -4
-10 5 -27 11 -37 13 -17 5 -17 7 -1 24 10 11 12 19 6 19 -7 0 -12 -4 -12 -10z"/>
<path d="M3682 2618 c-55 -26 -135 -114 -150 -165 -16 -55 -15 -118 4 -154 18
-35 22 -34 131 18 81 39 135 54 154 42 8 -4 23 0 38 10 15 10 37 22 50 26 20
6 23 4 18 -9 -4 -9 -5 -16 -4 -16 1 0 72 9 157 21 85 11 182 23 215 26 57 5
85 16 85 33 0 17 -306 -2 -433 -27 -28 -5 -29 -5 -13 19 19 29 68 169 61 176
-11 11 -97 21 -180 21 -70 0 -99 -4 -133 -21z"/>
<path d="M2100 2510 c6 -11 13 -20 16 -20 2 0 0 9 -6 20 -6 11 -13 20 -16 20
-2 0 0 -9 6 -20z"/>
<path d="M2174 2379 c-3 -6 -2 -15 4 -21 6 -6 12 -6 17 3 6 8 4 10 -5 4 -10
-6 -12 -4 -7 8 7 19 2 23 -9 6z"/>
<path d="M3855 2344 c-17 -8 -68 -38 -115 -65 l-86 -51 81 -83 c95 -98 125
-112 192 -96 27 7 58 19 70 26 19 13 20 18 11 52 -15 57 -83 196 -105 215 -17
16 -21 16 -48 2z"/>
<path d="M2200 2346 c0 -3 7 -22 15 -42 8 -19 12 -40 9 -48 -3 -7 2 -13 10
-13 12 0 11 9 -6 51 -19 50 -28 66 -28 52z"/>
<path d="M2163 2323 c-13 -5 3 -63 18 -63 4 0 6 -8 2 -17 -4 -13 -3 -15 5 -8
15 14 -8 93 -25 88z"/>
<path d="M1780 2310 c-9 -6 -10 -10 -3 -10 6 0 15 5 18 10 8 12 4 12 -15 0z"/>
<path d="M1830 2310 c-9 -6 -10 -10 -3 -10 6 0 15 5 18 10 8 12 4 12 -15 0z"/>
<path d="M1745 2291 c-3 -5 -2 -12 3 -15 5 -3 9 1 9 9 0 17 -3 19 -12 6z"/>
<path d="M1910 2296 c0 -2 7 -7 16 -10 8 -3 12 -2 9 4 -6 10 -25 14 -25 6z"/>
<path d="M1975 2252 c4 -9 -7 -26 -34 -49 -42 -35 -81 -101 -81 -135 0 -10 -1
-18 -2 -18 -2 0 -23 6 -48 14 -43 13 -46 13 -46 -5 0 -11 4 -15 11 -10 12 9
58 -12 48 -22 -3 -4 3 -7 15 -7 12 0 22 -5 22 -10 0 -6 -11 -8 -26 -4 -19 5
-25 4 -20 -5 4 -6 18 -11 32 -11 13 0 24 -4 24 -8 0 -14 88 -55 123 -58 17 -1
53 -5 80 -9 l47 -8 0 36 c0 78 -73 246 -132 302 -11 11 -17 14 -13 7z"/>
<path d="M2190 2211 c0 -6 4 -13 10 -16 6 -3 7 1 4 9 -7 18 -14 21 -14 7z"/>
<path d="M3585 2189 c-16 -11 -43 -26 -60 -34 -45 -21 -79 -51 -71 -64 11 -17
36 -13 36 5 0 14 3 14 15 4 12 -10 13 -16 3 -28 -7 -8 -13 -20 -13 -26 0 -6
-4 -12 -9 -13 -5 -1 -12 -5 -15 -10 -8 -11 -79 -43 -96 -43 -8 0 -34 -13 -58
-30 -25 -16 -50 -30 -57 -30 -7 0 -24 -8 -38 -18 -43 -30 -56 -36 -48 -24 3 6
2 13 -4 17 -5 3 -10 -1 -10 -10 0 -9 -4 -14 -9 -11 -13 9 -7 -27 9 -52 8 -12
39 -39 69 -60 50 -35 58 -37 130 -37 64 0 86 5 135 29 77 38 131 88 162 148
30 60 31 94 3 103 -12 4 -18 10 -13 14 5 3 9 13 9 21 0 8 6 14 13 13 6 -2 12
2 12 8 0 22 -32 105 -48 126 l-17 23 -30 -21z m53 -32 c2 -9 -1 -17 -7 -17 -6
0 -7 7 -4 17 4 10 2 14 -5 9 -6 -3 -14 -1 -17 5 -5 7 0 10 11 7 10 -2 20 -11
22 -21z m-21 -59 c-3 -7 -5 -2 -5 12 0 14 2 19 5 13 2 -7 2 -19 0 -25z m53
-22 c0 -16 -28 15 -34 37 -5 21 -4 21 14 -3 11 -14 20 -29 20 -34z"/>
<path d="M1720 2080 c0 -5 5 -10 11 -10 5 0 7 5 4 10 -3 6 -8 10 -11 10 -2 0
-4 -4 -4 -10z"/>
<path d="M3300 2060 c0 -5 4 -10 9 -10 6 0 13 5 16 10 3 6 -1 10 -9 10 -9 0
-16 -4 -16 -10z"/>
<path d="M3335 2050 c-3 -6 1 -7 9 -4 18 7 21 14 7 14 -6 0 -13 -4 -16 -10z"/>
<path d="M1685 2040 c-3 -6 1 -7 9 -4 18 7 21 14 7 14 -6 0 -13 -4 -16 -10z"/>
<path d="M1720 2041 c0 -5 6 -14 14 -20 12 -10 13 -8 9 8 -5 21 -23 30 -23 12z"/>
<path d="M1780 2030 c0 -6 7 -10 15 -10 8 0 15 2 15 4 0 2 -7 6 -15 10 -8 3
-15 1 -15 -4z"/>
<path d="M3428 2023 c6 -2 18 -2 25 0 6 3 1 5 -13 5 -14 0 -19 -2 -12 -5z"/>
<path d="M1768 2003 c6 -2 18 -2 25 0 6 3 1 5 -13 5 -14 0 -19 -2 -12 -5z"/>
<path d="M3245 1990 c-3 -6 1 -7 9 -4 18 7 21 14 7 14 -6 0 -13 -4 -16 -10z"/>
<path d="M1731 1981 c-12 -8 -12 -12 2 -26 9 -9 21 -14 25 -11 13 8 49 -21 39
-31 -5 -4 -13 0 -18 10 -10 16 -12 16 -38 1 -20 -12 -27 -22 -23 -36 2 -11 10
-17 18 -14 20 8 32 -14 39 -76 7 -52 10 -58 38 -67 48 -17 147 -13 194 8 23
11 59 37 81 60 l39 40 54 -14 c72 -19 90 -19 82 1 -5 12 -14 15 -44 10 -22 -3
-40 -2 -44 4 -4 6 -12 8 -18 4 -7 -3 -1 3 12 14 23 18 23 20 5 25 -38 12 -89
18 -75 8 7 -4 9 -11 5 -14 -21 -12 -76 4 -170 51 -102 51 -177 70 -203 53z
m86 -53 c-3 -7 -5 -2 -5 12 0 14 2 19 5 13 2 -7 2 -19 0 -25z m334 -52 c12 6
12 5 0 -9 -10 -13 -17 -15 -27 -6 -8 6 -11 16 -8 21 4 6 9 5 14 -2 5 -8 13 -9
21 -4z"/>
<path d="M3272 1971 c-11 -6 -10 -10 4 -15 20 -8 32 0 18 14 -5 5 -15 5 -22 1z"/>
<path d="M3063 1925 c-17 -13 -17 -14 5 -8 12 3 28 1 35 -5 9 -8 13 -6 13 7 0
21 -28 24 -53 6z"/>
<path d="M2915 1900 c-39 -26 -25 -26 17 0 18 11 29 20 23 20 -5 0 -23 -9 -40
-20z"/>
<path d="M2865 1862 c-5 -4 -11 -16 -13 -27 l-2 -20 11 20 c7 11 17 23 23 27
7 5 7 8 1 8 -5 0 -14 -4 -20 -8z"/>
<path d="M2341 1664 c0 -11 3 -14 6 -6 3 7 2 16 -1 19 -3 4 -6 -2 -5 -13z"/>
</g>
</svg>
